<svg xmlns="http://www.w3.org/2000/svg" xmlns:xlink="http://www.w3.org/1999/xlink" width="1000" zoomAndPan="magnify" viewBox="0 0 750 187.499995" height="250" preserveAspectRatio="xMidYMid meet" version="1.0"><defs><g/><clipPath id="f7eb7135c0"><path d="M 76.90625 0 L 318.511719 0 L 318.511719 187 L 76.90625 187 Z M 76.90625 0 " clip-rule="nonzero"/></clipPath><clipPath id="cd16465926"><rect x="0" width="449" y="0" height="96"/></clipPath></defs><g clip-path="url(#f7eb7135c0)"><path fill="#545454" d="M 174.648438 187.003906 L 156.84375 98.800781 L 144.53125 120.171875 L 76.90625 120.171875 L 138.285156 109.367188 L 161.773438 68.597656 L 173.6875 127.640625 L 195.195312 0 L 217.175781 134.820312 L 225.65625 109.367188 L 318.710938 120.171875 L 233.449219 120.171875 L 213.5625 179.828125 L 195.019531 66.085938 Z M 174.648438 187.003906 " fill-opacity="1" fill-rule="nonzero"/></g><g transform="matrix(1, 0, 0, 1, 211, 34)"><g clip-path="url(#cd16465926)"><g fill="#545454" fill-opacity="1"><g transform="translate(1.14144, 74.483106)"><g><path d="M 50.375 0 L 36.96875 0 L 15.34375 -37.609375 L 15.03125 -37.609375 C 15.125 -36.046875 15.203125 -34.472656 15.265625 -32.890625 C 15.335938 -31.304688 15.40625 -29.722656 15.46875 -28.140625 C 15.539062 -26.566406 15.609375 -24.988281 15.671875 -23.40625 L 15.671875 0 L 6.265625 0 L 6.265625 -49.71875 L 19.5625 -49.71875 L 41.15625 -12.484375 L 41.390625 -12.484375 C 41.347656 -14.023438 41.289062 -15.554688 41.21875 -17.078125 C 41.15625 -18.597656 41.09375 -20.113281 41.03125 -21.625 C 40.976562 -23.144531 40.925781 -24.664062 40.875 -26.1875 L 40.875 -49.71875 L 50.375 -49.71875 Z M 50.375 0 "/></g></g></g><g fill="#545454" fill-opacity="1"><g transform="translate(57.771624, 74.483106)"><g><path d="M 36.703125 0 L 33.09375 -11.84375 L 14.96875 -11.84375 L 11.359375 0 L 0 0 L 17.546875 -49.921875 L 30.4375 -49.921875 L 48.0625 0 Z M 30.578125 -20.671875 L 26.96875 -32.25 C 26.738281 -33.019531 26.4375 -34.007812 26.0625 -35.21875 C 25.695312 -36.425781 25.328125 -37.660156 24.953125 -38.921875 C 24.578125 -40.179688 24.273438 -41.273438 24.046875 -42.203125 C 23.816406 -41.273438 23.503906 -40.125 23.109375 -38.75 C 22.710938 -37.382812 22.332031 -36.085938 21.96875 -34.859375 C 21.601562 -33.640625 21.34375 -32.769531 21.1875 -32.25 L 17.625 -20.671875 Z M 30.578125 -20.671875 "/></g></g></g><g fill="#545454" fill-opacity="1"><g transform="translate(105.830754, 74.483106)"><g><path d="M 6.265625 -49.71875 L 21.734375 -49.71875 C 28.359375 -49.71875 33.367188 -48.785156 36.765625 -46.921875 C 40.171875 -45.066406 41.875 -41.804688 41.875 -37.140625 C 41.875 -35.253906 41.570312 -33.550781 40.96875 -32.03125 C 40.363281 -30.519531 39.492188 -29.273438 38.359375 -28.296875 C 37.234375 -27.316406 35.851562 -26.679688 34.21875 -26.390625 L 34.21875 -26.046875 C 35.875 -25.710938 37.367188 -25.128906 38.703125 -24.296875 C 40.046875 -23.472656 41.117188 -22.269531 41.921875 -20.6875 C 42.722656 -19.113281 43.125 -17.023438 43.125 -14.421875 C 43.125 -11.398438 42.382812 -8.8125 40.90625 -6.65625 C 39.4375 -4.507812 37.335938 -2.863281 34.609375 -1.71875 C 31.878906 -0.570312 28.628906 0 24.859375 0 L 6.265625 0 Z M 16.796875 -30.03125 L 22.921875 -30.03125 C 25.984375 -30.03125 28.101562 -30.507812 29.28125 -31.46875 C 30.457031 -32.4375 31.046875 -33.863281 31.046875 -35.75 C 31.046875 -37.65625 30.347656 -39.019531 28.953125 -39.84375 C 27.566406 -40.675781 25.363281 -41.09375 22.34375 -41.09375 L 16.796875 -41.09375 Z M 16.796875 -21.671875 L 16.796875 -8.703125 L 23.671875 -8.703125 C 26.847656 -8.703125 29.054688 -9.3125 30.296875 -10.53125 C 31.546875 -11.757812 32.171875 -13.40625 32.171875 -15.46875 C 32.171875 -16.695312 31.898438 -17.773438 31.359375 -18.703125 C 30.816406 -19.628906 29.90625 -20.351562 28.625 -20.875 C 27.34375 -21.40625 25.578125 -21.671875 23.328125 -21.671875 Z M 16.796875 -21.671875 "/></g></g></g><g fill="#545454" fill-opacity="1"><g transform="translate(152.631436, 74.483106)"><g><path d="M 47.515625 -25.34375 C 47.515625 -19.738281 46.441406 -15.0625 44.296875 -11.3125 C 42.160156 -7.5625 39.0625 -4.738281 35 -2.84375 C 30.9375 -0.945312 26.050781 0 20.34375 0 L 6.265625 0 L 6.265625 -49.71875 L 21.875 -49.71875 C 27.082031 -49.71875 31.601562 -48.796875 35.4375 -46.953125 C 39.269531 -45.109375 42.238281 -42.375 44.34375 -38.75 C 46.457031 -35.132812 47.515625 -30.664062 47.515625 -25.34375 Z M 36.5625 -25.0625 C 36.5625 -28.738281 36.019531 -31.757812 34.9375 -34.125 C 33.863281 -36.5 32.28125 -38.253906 30.1875 -39.390625 C 28.09375 -40.523438 25.5 -41.09375 22.40625 -41.09375 L 16.796875 -41.09375 L 16.796875 -8.703125 L 21.328125 -8.703125 C 26.472656 -8.703125 30.296875 -10.070312 32.796875 -12.8125 C 35.304688 -15.5625 36.5625 -19.644531 36.5625 -25.0625 Z M 36.5625 -25.0625 "/></g></g></g><g fill="#545454" fill-opacity="1"><g transform="translate(204.193814, 74.483106)"><g/></g></g><g fill="#545454" fill-opacity="1"><g transform="translate(222.288264, 74.483106)"><g><path d="M 27.375 -41.671875 C 25.363281 -41.671875 23.578125 -41.273438 22.015625 -40.484375 C 20.460938 -39.703125 19.160156 -38.570312 18.109375 -37.09375 C 17.054688 -35.625 16.253906 -33.847656 15.703125 -31.765625 C 15.160156 -29.679688 14.890625 -27.335938 14.890625 -24.734375 C 14.890625 -21.210938 15.328125 -18.207031 16.203125 -15.71875 C 17.078125 -13.238281 18.429688 -11.347656 20.265625 -10.046875 C 22.109375 -8.742188 24.476562 -8.09375 27.375 -8.09375 C 29.394531 -8.09375 31.421875 -8.316406 33.453125 -8.765625 C 35.484375 -9.222656 37.6875 -9.875 40.0625 -10.71875 L 40.0625 -1.875 C 37.863281 -0.96875 35.695312 -0.316406 33.5625 0.078125 C 31.4375 0.484375 29.046875 0.6875 26.390625 0.6875 C 21.265625 0.6875 17.050781 -0.375 13.75 -2.5 C 10.457031 -4.625 8.015625 -7.59375 6.421875 -11.40625 C 4.835938 -15.226562 4.046875 -19.691406 4.046875 -24.796875 C 4.046875 -28.554688 4.554688 -32 5.578125 -35.125 C 6.597656 -38.257812 8.09375 -40.972656 10.0625 -43.265625 C 12.039062 -45.554688 14.476562 -47.320312 17.375 -48.5625 C 20.28125 -49.8125 23.613281 -50.4375 27.375 -50.4375 C 29.851562 -50.4375 32.332031 -50.125 34.8125 -49.5 C 37.289062 -48.875 39.664062 -48.019531 41.9375 -46.9375 L 38.53125 -38.359375 C 36.675781 -39.242188 34.804688 -40.015625 32.921875 -40.671875 C 31.035156 -41.335938 29.1875 -41.671875 27.375 -41.671875 Z M 27.375 -41.671875 "/></g></g></g><g fill="#545454" fill-opacity="1"><g transform="translate(266.674084, 74.483106)"><g><path d="M 47 0 L 36.5 0 L 36.5 -21.46875 L 16.796875 -21.46875 L 16.796875 0 L 6.265625 0 L 6.265625 -49.71875 L 16.796875 -49.71875 L 16.796875 -30.234375 L 36.5 -30.234375 L 36.5 -49.71875 L 47 -49.71875 Z M 47 0 "/></g></g></g><g fill="#545454" fill-opacity="1"><g transform="translate(319.971081, 74.483106)"><g><path d="M 36.703125 0 L 33.09375 -11.84375 L 14.96875 -11.84375 L 11.359375 0 L 0 0 L 17.546875 -49.921875 L 30.4375 -49.921875 L 48.0625 0 Z M 30.578125 -20.671875 L 26.96875 -32.25 C 26.738281 -33.019531 26.4375 -34.007812 26.0625 -35.21875 C 25.695312 -36.425781 25.328125 -37.660156 24.953125 -38.921875 C 24.578125 -40.179688 24.273438 -41.273438 24.046875 -42.203125 C 23.816406 -41.273438 23.503906 -40.125 23.109375 -38.75 C 22.710938 -37.382812 22.332031 -36.085938 21.96875 -34.859375 C 21.601562 -33.640625 21.34375 -32.769531 21.1875 -32.25 L 17.625 -20.671875 Z M 30.578125 -20.671875 "/></g></g></g><g fill="#545454" fill-opacity="1"><g transform="translate(368.030211, 74.483106)"><g><path d="M 6.265625 0 L 6.265625 -49.71875 L 16.796875 -49.71875 L 16.796875 0 Z M 6.265625 0 "/></g></g></g><g fill="#545454" fill-opacity="1"><g transform="translate(391.090431, 74.483106)"><g><path d="M 50.375 0 L 36.96875 0 L 15.34375 -37.609375 L 15.03125 -37.609375 C 15.125 -36.046875 15.203125 -34.472656 15.265625 -32.890625 C 15.335938 -31.304688 15.40625 -29.722656 15.46875 -28.140625 C 15.539062 -26.566406 15.609375 -24.988281 15.671875 -23.40625 L 15.671875 0 L 6.265625 0 L 6.265625 -49.71875 L 19.5625 -49.71875 L 41.15625 -12.484375 L 41.390625 -12.484375 C 41.347656 -14.023438 41.289062 -15.554688 41.21875 -17.078125 C 41.15625 -18.597656 41.09375 -20.113281 41.03125 -21.625 C 40.976562 -23.144531 40.925781 -24.664062 40.875 -26.1875 L 40.875 -49.71875 L 50.375 -49.71875 Z M 50.375 0 "/></g></g></g></g></g></svg>